<svg xmlns="http://www.w3.org/2000/svg" xmlns:xlink="http://www.w3.org/1999/xlink" viewBox="0 0 168.08 71.59"><defs><style>.cls-1,.cls-9{fill:url(#linear-gradient);}.cls-1,.cls-2,.cls-3,.cls-4,.cls-5,.cls-6,.cls-7{clip-rule:evenodd;}.cls-19,.cls-2{fill:url(#linear-gradient-2);}.cls-21,.cls-3{fill:url(#linear-gradient-3);}.cls-11,.cls-4{fill:url(#linear-gradient-4);}.cls-13,.cls-5{fill:url(#linear-gradient-5);}.cls-15,.cls-6{fill:url(#linear-gradient-6);}.cls-17,.cls-7{fill:url(#linear-gradient-7);}.cls-23,.cls-8{fill:#fff;}.cls-11,.cls-13,.cls-15,.cls-17,.cls-19,.cls-21,.cls-23,.cls-9{fill-rule:evenodd;}.cls-10{clip-path:url(#clip-path);}.cls-12{clip-path:url(#clip-path-2);}.cls-14{clip-path:url(#clip-path-3);}.cls-16{clip-path:url(#clip-path-4);}.cls-18{clip-path:url(#clip-path-5);}.cls-20{clip-path:url(#clip-path-6);}.cls-22{clip-path:url(#clip-path-7);}</style><linearGradient id="linear-gradient" x1="48.81" y1="20.25" x2="48.81" y2="13.12" gradientUnits="userSpaceOnUse"><stop offset="0" stop-color="#fff" stop-opacity="0"/><stop offset="1" stop-color="#fff"/></linearGradient><linearGradient id="linear-gradient-2" x1="38.05" y1="25.35" x2="38.05" y2="18.22" xlink:href="#linear-gradient"/><linearGradient id="linear-gradient-3" x1="57.89" y1="41.39" x2="57.89" y2="25.61" xlink:href="#linear-gradient"/><linearGradient id="linear-gradient-4" x1="57.3" y1="25.48" x2="57.3" y2="18.17" xlink:href="#linear-gradient"/><linearGradient id="linear-gradient-5" x1="79.66" y1="31.86" x2="79.66" y2="11.69" xlink:href="#linear-gradient"/><linearGradient id="linear-gradient-6" x1="55.6" y1="13.6" x2="55.6" y2="0" xlink:href="#linear-gradient"/><linearGradient id="linear-gradient-7" x1="24.41" y1="18.52" x2="24.41" y2="11.79" xlink:href="#linear-gradient"/><clipPath id="clip-path"><polygon class="cls-1" points="45.03 20.25 52.59 16.67 45.18 13.12 45.03 20.25 45.03 20.25"/></clipPath><clipPath id="clip-path-2"><path class="cls-4" d="M55.89,25.48c5-3.07,2.92-5.65-.18-7.31l.18,7.31Z"/></clipPath><clipPath id="clip-path-3"><polygon class="cls-5" points="69.27 31.86 86.65 23.41 90.05 21.75 69.3 11.69 69.27 31.86 69.27 31.86"/></clipPath><clipPath id="clip-path-4"><polygon class="cls-6" points="45.19 0 66.19 10.18 58.97 13.61 45.02 7.14 45.19 0 45.19 0"/></clipPath><clipPath id="clip-path-5"><polygon class="cls-7" points="20.93 18.52 27.95 15.2 20.87 11.79 20.93 18.52 20.93 18.52"/></clipPath><clipPath id="clip-path-6"><polygon class="cls-2" points="34.32 25.36 41.79 21.8 34.32 18.22 34.32 25.36 34.32 25.36"/></clipPath><clipPath id="clip-path-7"><polygon class="cls-3" points="66.07 33.42 49.7 41.39 49.83 25.61 66.07 33.42 66.07 33.42"/></clipPath></defs><title>Asset 1</title><g id="Layer_2" data-name="Layer 2"><g id="Header"><path class="cls-8" d="M40.15,48.33h4.07a4.18,4.18,0,0,1,2.94,1A3.41,3.41,0,0,1,48.24,52a4.66,4.66,0,0,1-.49,2,3.51,3.51,0,0,1-1.83,1.62l3.46,5.18H46.33L43.12,56h-.3v4.81H40.15V48.33Zm2.69,2.22v3.24h.57c1.39,0,2.08-.58,2.08-1.72A1.32,1.32,0,0,0,45,51a2.45,2.45,0,0,0-1.5-.41Zm22-2.22h7v2.46H67.48V53.3h4.31v2.42H67.48V58.3h4.31v2.46h-7V48.33Zm22.54,0h4.23a5.78,5.78,0,0,1,4.35,1.72,6.22,6.22,0,0,1,1.65,4.51,6,6,0,0,1-1.7,4.5,6.16,6.16,0,0,1-4.53,1.7h-4V48.33Zm2.69,2.35v7.67h1a4,4,0,0,0,2.7-.89,3.73,3.73,0,0,0,1.06-3,4.49,4.49,0,0,0-.51-2.17A2.6,2.6,0,0,0,92.87,51,5.45,5.45,0,0,0,91,50.68Zm23-2.35h2.65v9.75h3.65v2.68h-6.3V48.33Zm21.58,0h7v2.46h-4.3V53.3h4.3v2.42h-4.3V58.3h4.3v2.46h-7V48.33Zm30.79,0h2.61V60.76h-2.59l-5.68-8v8h-2.66V48.33h2.62l5.7,8v-8Z"/><path class="cls-8" d="M63.65,65.86h3.78v1.2H66.14v4.45H64.93V67.06H63.65v-1.2Zm8.8,0h3.17V67h-2v1.14h2v1.1h-2v1.17h2v1.12H72.45V65.86Zm12.62.3v1.39a3.24,3.24,0,0,0-1.6-.56,1.39,1.39,0,0,0-1.1.47A1.86,1.86,0,0,0,82,68.74,1.68,1.68,0,0,0,82.39,70a1.53,1.53,0,0,0,1.16.45,3.2,3.2,0,0,0,1.52-.51v1.37a5.43,5.43,0,0,1-1.65.33,2.57,2.57,0,0,1-1.94-.84,2.9,2.9,0,0,1-.79-2,2.87,2.87,0,0,1,.81-2.07,2.6,2.6,0,0,1,2-.85,4,4,0,0,1,1.6.37Zm5.11-.3h1.21V68h2V65.86h1.21v5.65H93.38V69.27h-2v2.24H90.18V65.86Zm13.51,0h1.19v5.65H103.7l-2.58-3.65v3.65H99.91V65.86h1.19l2.59,3.63V65.86ZM110,68.69a2.78,2.78,0,0,1,.83-2.07,2.71,2.71,0,0,1,2-.82,2.94,2.94,0,0,1,2.08,5,2.74,2.74,0,0,1-2.05.82,2.69,2.69,0,0,1-2-.82,2.84,2.84,0,0,1-.8-2.07Zm2.84-1.76a1.41,1.41,0,0,0-1.14.49,1.92,1.92,0,0,0-.43,1.3,1.83,1.83,0,0,0,.44,1.25A1.55,1.55,0,0,0,114,70a2.13,2.13,0,0,0,0-2.55,1.51,1.51,0,0,0-1.14-.49ZM121,65.86h1.21v4.43h1.66v1.22H121V65.86Zm7.66,2.83a2.78,2.78,0,0,1,.83-2.07,2.7,2.7,0,0,1,1.95-.82,2.94,2.94,0,0,1,2.08,5,2.74,2.74,0,0,1-2,.82,2.68,2.68,0,0,1-2-.82,2.84,2.84,0,0,1-.8-2.07Zm2.84-1.76a1.41,1.41,0,0,0-1.14.49,1.92,1.92,0,0,0-.43,1.3,1.79,1.79,0,0,0,.44,1.25,1.41,1.41,0,0,0,1.11.49,1.44,1.44,0,0,0,1.14-.49,1.84,1.84,0,0,0,.44-1.28,1.81,1.81,0,0,0-.43-1.27,1.47,1.47,0,0,0-1.13-.49Zm12.84.16-.81.76a1.8,1.8,0,0,0-.62-.66,1.6,1.6,0,0,0-.79-.22,1.53,1.53,0,0,0-1.14.51,1.62,1.62,0,0,0-.49,1.18,1.7,1.7,0,0,0,.49,1.24,1.57,1.57,0,0,0,1.17.5,1.44,1.44,0,0,0,.72-.19,1.29,1.29,0,0,0,.55-.71H142V68.4h2.6v.73a2.35,2.35,0,0,1-.39,1.21,2.25,2.25,0,0,1-1,1,3,3,0,0,1-1.28.3,2.58,2.58,0,0,1-2-.85,2.9,2.9,0,0,1-.81-2.09,2.78,2.78,0,0,1,.83-2,2.68,2.68,0,0,1,2-.84,2.52,2.52,0,0,1,2.28,1.3Zm5.4-1.23h1.21v5.65h-1.21V65.86Zm6.56,0h3.17V67h-2v1.14h2v1.1h-2v1.17h2v1.12h-3.17V65.86Zm11.57.52-.76.83a2,2,0,0,0-.86-.36.43.43,0,0,0-.34.16.49.49,0,0,0-.15.36q0,.42.75.72a5.27,5.27,0,0,1,.84.43,1.43,1.43,0,0,1,.47.53,1.46,1.46,0,0,1,.19.74,1.66,1.66,0,0,1-.58,1.26,2,2,0,0,1-1.38.54,2.51,2.51,0,0,1-1.73-.83l.8-.93a1.46,1.46,0,0,0,1,.55.58.58,0,0,0,.42-.19.59.59,0,0,0,.2-.41q0-.45-.93-.78a3.08,3.08,0,0,1-.75-.36,1.32,1.32,0,0,1-.38-.5,1.55,1.55,0,0,1-.15-.66,1.6,1.6,0,0,1,.49-1.22,1.73,1.73,0,0,1,1.28-.47,2.21,2.21,0,0,1,1.57.59Z"/><polygon class="cls-9" points="45.03 20.25 52.59 16.67 45.18 13.12 45.03 20.25 45.03 20.25"/><path class="cls-11" d="M55.89,25.48c5-3.07,2.92-5.65-.18-7.31l.18,7.31Z"/><polygon class="cls-13" points="69.27 31.86 86.65 23.41 90.05 21.75 69.3 11.69 69.27 31.86 69.27 31.86"/><polygon class="cls-15" points="45.19 0 66.19 10.18 58.97 13.61 45.02 7.14 45.19 0 45.19 0"/><polygon class="cls-17" points="20.93 18.52 27.95 15.2 20.87 11.79 20.93 18.52 20.93 18.52"/><polygon class="cls-19" points="34.32 25.36 41.79 21.8 34.32 18.22 34.32 25.36 34.32 25.36"/><polygon class="cls-21" points="66.07 33.42 49.7 41.39 49.83 25.61 66.07 33.42 66.07 33.42"/><path class="cls-23" d="M68.11,31.31l-5.59-2.69c4.06-2.48,5.61-4.8,5.58-6.87v9.56Z"/><polygon class="cls-23" points="45.03 20.25 37.62 16.68 45.18 13.12 45.03 20.25 45.03 20.25"/><polygon class="cls-23" points="55.89 25.48 48.22 21.76 55.71 18.17 55.89 25.48 55.89 25.48"/><path class="cls-23" d="M68.11,31.31l1.16.55,0-20.17-7.09,3.4c3.23,1.73,5.86,4,5.89,6.66v9.56Z"/><polygon class="cls-23" points="45.02 7.14 31.24 13.65 24.13 10.21 45.19 0 45.02 7.14 45.02 7.14"/><polygon class="cls-23" points="20.93 18.52 6.81 25.2 0 21.92 20.87 11.79 20.93 18.52 20.93 18.52"/><polygon class="cls-23" points="34.32 25.36 20.62 31.88 13.08 28.23 34.32 18.22 34.32 25.36 34.32 25.36"/><polygon class="cls-23" points="40.02 41.25 23.73 33.38 40.06 25.64 40.02 41.25 40.02 41.25"/></g></g></svg>